<svg width="16" height="16" xmlns="http://www.w3.org/2000/svg" viewBox="0 0 16 16" shape-rendering="geometricPrecision" fill="#cb1800"><defs><mask id="a"><rect fill="#fff" width="100%" height="100%"/><path fill="#000" d="M19.079 1.436h-4.914l-1.516-4.674-1.519 4.674H6.217l3.975 2.886-1.516 4.673 3.972-2.888 3.972 2.889-1.516-4.674z"/></mask></defs><path d="M13.928 3.94L16 2.435h-2.561L12.648 0l-.791 2.435H9.295l2.072 1.505-.79 2.437 2.071-1.506 2.071 1.506z"/><g mask="url(#a)"><path d="M7.271 8.729H1.03v.001a6.242 6.242 0 0 0 6.238 6.239h.002v-6.24z"/><path d="M8.83.928a6.24 6.24 0 0 0-6.238 6.236H4.45a4.382 4.382 0 1 1 4.384 4.384v1.857a6.241 6.241 0 0 0 6.235-6.24A6.24 6.24 0 0 0 8.83.928zm2.344 6.237a2.343 2.343 0 0 0-4.686-.001h2.346v2.345a2.345 2.345 0 0 0 2.34-2.344z"/></g></svg>