<?xml version="1.0" encoding="UTF-8" standalone="no"?>
<!DOCTYPE svg PUBLIC "-//W3C//DTD SVG 1.1//EN" "http://www.w3.org/Graphics/SVG/1.1/DTD/svg11.dtd">
<svg width="100%" height="100%" viewBox="0 0 16 16" version="1.1" xmlns="http://www.w3.org/2000/svg" xmlns:xlink="http://www.w3.org/1999/xlink" xml:space="preserve" xmlns:serif="http://www.serif.com/" style="fill-rule:evenodd;clip-rule:evenodd;stroke-linejoin:round;stroke-miterlimit:2;">
    <g transform="matrix(1,0,0,1,-2,0)">
        <path d="M7.042,3L9,3L9,4.958L7.042,4.958L7.042,3ZM7.042,7L9,7L9,8.958L7.042,8.958L7.042,7ZM7.042,11L9,11L9,12.958L7.042,12.958L7.042,11Z" style="fill:rgb(25,73,128);fill-rule:nonzero;"/>
    </g>
    <g transform="matrix(1,0,0,1,2,0)">
        <path d="M7.042,3L9,3L9,4.958L7.042,4.958L7.042,3ZM7.042,7L9,7L9,8.958L7.042,8.958L7.042,7ZM7.042,11L9,11L9,12.958L7.042,12.958L7.042,11Z" style="fill:rgb(25,73,128);fill-rule:nonzero;"/>
    </g>
</svg>
